<?xml version="1.0" standalone="no"?>
<!DOCTYPE svg PUBLIC "-//W3C//DTD SVG 20010904//EN"
 "http://www.w3.org/TR/2001/REC-SVG-20010904/DTD/svg10.dtd">
<svg version="1.0" xmlns="http://www.w3.org/2000/svg"
 width="58.000000pt" height="46.000000pt" viewBox="0 0 58.000000 46.000000"
 preserveAspectRatio="xMidYMid meet">
<metadata>
Created by potrace 1.16, written by Peter Selinger 2001-2019
</metadata>
<g transform="translate(0.000000,46.000000) scale(0.100000,-0.100000)"
fill="#000000" stroke="none">
<path d="M229 441 c-18 -14 -45 -20 -108 -22 -118 -6 -121 -10 -121 -191 0
-134 1 -140 25 -163 21 -22 33 -25 100 -25 62 0 82 -4 102 -20 34 -27 94 -27
118 0 15 17 31 20 100 20 75 0 84 2 106 26 23 25 24 31 24 166 l0 140 -28 24
c-24 21 -38 24 -103 24 -61 0 -81 4 -101 20 -32 25 -83 26 -114 1z"/>
</g>
</svg>
